<?xml version="1.0" encoding="utf-8"?>
<!-- Generator: Adobe Illustrator 21.0.2, SVG Export Plug-In . SVG Version: 6.00 Build 0)  -->
<svg version="1.1" id="Layer_1" xmlns="http://www.w3.org/2000/svg" xmlns:xlink="http://www.w3.org/1999/xlink" x="0px" y="0px"
	 viewBox="0 0 379.1 80" style="enable-background:new 0 0 379.1 80;" xml:space="preserve">
<style type="text/css">
	.st0{fill:#2E2E2E;}
	.st1{fill:#947D7D;}
	.st2{fill:#FFFFFF;}
</style>
<g id="Distillery">
	<path d="M226.2,27.1c2-0.3,4.4-0.5,7-0.5c4.7,0,8.1,1.1,10.4,3.2c2.3,2.1,3.6,5.1,3.6,9.2c0,4.2-1.3,7.6-3.7,10
		c-2.4,2.4-6.3,3.7-11.3,3.7c-2.4,0-4.3-0.1-6-0.3V27.1z M229.5,49.7c0.8,0.2,2.1,0.2,3.3,0.2c7.1,0,10.9-4,10.9-10.9
		c0-6-3.4-9.9-10.4-9.9c-1.7,0-3,0.2-3.9,0.3V49.7z"/>
	<path d="M257,28.8c0,1.1-0.8,2.1-2.1,2.1c-1.2,0-2-0.9-2-2.1c0-1.2,0.9-2.1,2.1-2.1C256.2,26.7,257,27.6,257,28.8z M253.3,52.4V34
		h3.3v18.4H253.3z"/>
	<path d="M263.6,48.9c1,0.6,2.7,1.3,4.4,1.3c2.4,0,3.6-1.2,3.6-2.7c0-1.6-1-2.5-3.4-3.4c-3.3-1.2-4.9-3-4.9-5.2c0-3,2.4-5.4,6.3-5.4
		c1.9,0,3.5,0.5,4.5,1.1l-0.8,2.4c-0.7-0.5-2.1-1.1-3.8-1.1c-2,0-3.1,1.1-3.1,2.5c0,1.5,1.1,2.2,3.5,3.1c3.2,1.2,4.8,2.8,4.8,5.5
		c0,3.2-2.5,5.5-6.9,5.5c-2,0-3.9-0.5-5.2-1.3L263.6,48.9z"/>
	<path d="M285.1,28.7V34h4.8v2.5h-4.8v9.9c0,2.3,0.6,3.6,2.5,3.6c0.9,0,1.5-0.1,1.9-0.2l0.2,2.5c-0.6,0.3-1.7,0.5-3,0.5
		c-1.6,0-2.8-0.5-3.6-1.4c-1-1-1.3-2.6-1.3-4.8v-10h-2.8V34h2.8v-4.4L285.1,28.7z"/>
	<path d="M299.2,28.8c0,1.1-0.8,2.1-2.1,2.1c-1.2,0-2-0.9-2-2.1c0-1.2,0.9-2.1,2.1-2.1C298.4,26.7,299.2,27.6,299.2,28.8z
		 M295.5,52.4V34h3.3v18.4H295.5z"/>
	<path d="M306.3,25.4h3.3v27h-3.3V25.4z"/>
	<path d="M317.2,25.4h3.3v27h-3.3V25.4z"/>
	<path d="M329.9,43.8c0.1,4.5,3,6.4,6.3,6.4c2.4,0,3.8-0.4,5.1-1l0.6,2.4c-1.2,0.5-3.2,1.1-6.1,1.1c-5.7,0-9-3.7-9-9.3
		s3.3-9.9,8.6-9.9c6,0,7.6,5.3,7.6,8.7c0,0.7-0.1,1.2-0.1,1.6H329.9z M339.7,41.4c0-2.1-0.9-5.4-4.6-5.4c-3.4,0-4.9,3.1-5.1,5.4
		H339.7z"/>
	<path d="M349,39.7c0-2.2,0-4-0.2-5.7h2.9l0.1,3.6h0.2c0.8-2.5,2.8-4,5.1-4c0.4,0,0.6,0,1,0.1v3.2c-0.3-0.1-0.7-0.1-1.1-0.1
		c-2.4,0-4,1.8-4.5,4.3c-0.1,0.5-0.2,1-0.2,1.6v9.8H349V39.7z"/>
	<path d="M365.5,34l4,10.9c0.4,1.2,0.9,2.7,1.2,3.8h0.1c0.3-1.1,0.7-2.5,1.2-3.8l3.6-10.8h3.5l-5,13.1c-2.4,6.3-4,9.5-6.3,11.5
		c-1.6,1.4-3.3,2-4.1,2.2l-0.8-2.8c0.8-0.3,1.9-0.8,2.9-1.6c0.9-0.7,2.1-2,2.8-3.7c0.2-0.3,0.3-0.6,0.3-0.8c0-0.2-0.1-0.5-0.2-0.9
		L361.8,34H365.5z"/>
</g>
<path id="Laravel" class="st0" d="M106.6,47.8h11.2V52h-16.5V26.4h5.3C106.6,26.4,106.6,47.8,106.6,47.8z M131.5,52
	c-0.3-0.5-0.4-1.1-0.5-1.7c-1.2,1.4-3,2.1-4.8,2c-1.9,0-3.4-0.5-4.6-1.6c-1.2-1-1.9-2.5-1.8-4.1c0-2,0.8-3.6,2.2-4.6
	c1.5-1.1,3.7-1.6,6.5-1.6h2.3v-1.1c0-0.9-0.2-1.6-0.7-2.1c-0.4-0.5-1.2-0.8-2.1-0.8c-0.8,0-1.5,0.2-2,0.6c-0.5,0.4-0.7,1-0.7,1.7
	h-5.1c0-1.1,0.3-2.1,1-3.1c0.7-1,1.7-1.7,2.9-2.2c1.3-0.6,2.8-0.8,4.2-0.8c2.3,0,4.2,0.6,5.6,1.8c1.4,1.2,2.1,2.8,2.1,5v8.2
	c0,1.8,0.3,3.2,0.8,4.1V52H131.5L131.5,52z M127.3,48.5c0.8,0,1.5-0.2,2.1-0.5c0.6-0.3,1.1-0.8,1.4-1.3v-3.3h-1.9
	c-2.5,0-3.9,0.9-4.1,2.6l0,0.3c0,0.6,0.2,1.2,0.7,1.6C125.9,48.3,126.6,48.5,127.3,48.5L127.3,48.5z M150.4,37.7
	c-0.7-0.1-1.3-0.1-1.8-0.1c-1.9,0-3.2,0.7-3.8,2V52h-5.1V33h4.8l0.1,2.3c1-1.8,2.4-2.6,4.2-2.6c0.6,0,1.1,0.1,1.6,0.2L150.4,37.7
	L150.4,37.7z M163.4,52c-0.3-0.5-0.4-1.1-0.5-1.7c-1.2,1.4-3,2.1-4.8,2c-1.9,0-3.4-0.5-4.6-1.6c-1.2-1-1.9-2.5-1.8-4.1
	c0-2,0.8-3.6,2.2-4.6c1.5-1.1,3.7-1.6,6.5-1.6h2.3v-1.1c0-0.9-0.2-1.6-0.7-2.1c-0.4-0.5-1.2-0.8-2.1-0.8c-0.9,0-1.5,0.2-2,0.6
	c-0.5,0.4-0.7,1-0.7,1.7H152c0-1.1,0.3-2.1,1-3.1c0.7-1,1.7-1.7,2.9-2.2c1.3-0.5,2.7-0.8,4.2-0.8c2.4,0,4.2,0.6,5.6,1.8
	c1.4,1.2,2.1,2.8,2.1,5v8.2c0,1.8,0.3,3.2,0.8,4.1V52H163.4L163.4,52z M159.2,48.5c0.8,0,1.4-0.2,2.1-0.5c0.6-0.3,1.1-0.8,1.4-1.3
	v-3.3h-1.9c-2.5,0-3.9,0.9-4.1,2.6l0,0.3c0,0.6,0.2,1.2,0.7,1.6C157.8,48.3,158.5,48.5,159.2,48.5L159.2,48.5z M178.5,45.8L182,33
	h5.3L181,52h-4.9l-6.4-19h5.3L178.5,45.8L178.5,45.8z M198.1,52.3c-2.8,0-5.1-0.8-6.8-2.6c-1.8-1.7-2.6-4-2.6-6.8v-0.5
	c0-1.9,0.4-3.6,1.1-5.1c0.7-1.4,1.8-2.7,3.1-3.5c1.4-0.8,3-1.2,4.6-1.2c2.6,0,4.6,0.8,6.1,2.5s2.2,4,2.2,7v2.1h-12.1
	c0.1,1.1,0.6,2.2,1.5,3c0.9,0.8,2,1.2,3.1,1.1c2,0,3.5-0.7,4.6-2.1l2.5,2.8c-0.8,1.1-1.9,2-3.1,2.5C201.1,52,199.7,52.3,198.1,52.3
	L198.1,52.3z M197.5,36.7c-1,0-1.8,0.3-2.5,1c-0.7,0.8-1.1,1.8-1.2,2.9h7.1v-0.4c0-1.1-0.3-2-0.9-2.6
	C199.4,37,198.6,36.7,197.5,36.7L197.5,36.7z M214.2,52h-5.1V25h5.1V52z"/>
<g id="Logo">
	<path class="st1" d="M0,40c0-10.6,4.2-20.8,11.7-28.3c15.6-15.6,40.9-15.6,56.6,0s15.6,40.9,0,56.6s-40.9,15.6-56.6,0
		C4.2,60.8,0,50.6,0,40z"/>
	<path class="st2" d="M62.4,50l-4.9-4.9c-0.4-0.4-1-0.4-1.4,0c-0.4,0.4-0.4,1,0,1.4l4.9,4.9c0.2,0.2,0.4,0.3,0.7,0.3
		c0.2,0,0.5-0.1,0.7-0.3C62.8,51,62.8,50.4,62.4,50z M49.5,46.4c-0.3-2.8-1.8-5.4-4.1-7.1c-0.1-0.1-0.1-0.1-0.2-0.2
		c-0.1,0-0.1-0.1-0.2-0.1l-1.7-13.5c0.1-1.2,1.2-2.1,2.4-2l0,0l10.8,0v-4.7l-11.5-2.1l-0.1,0c-5.3-0.4-9.9,3.7-10.3,9l-1.7,13.5
		c-2.4,1.7-4,4.4-4.4,7.3c-5.8,2.1-10,5.9-11.2,10.2L17.3,57l3.6,6.3h36.4l3.6-6.3l-0.1-0.4C59.5,52.3,55.4,48.5,49.5,46.4z
		 M56.2,61.4H22l-2.6-4.6c1.2-3.7,5.1-7,10.4-8.7l0.6-0.2l0-0.7c0.2-2.7,1.6-5.2,4-6.7l0.4-0.2l1.8-14.4l0-0.1
		c0.3-4.2,3.9-7.4,8.2-7.1l9.9,1.8v1.1l-8.8,0c-2.3-0.1-4.3,1.6-4.4,3.9l0,0.1L43.1,39h-3.7c-0.5,0-1,0.4-1,1c0,0.5,0.4,1,1,1h5
		c1.5,1.2,2.6,3,3,4.9h-12c-0.5,0-1,0.4-1,1c0,0.5,0.4,1,1,1h12.2l0,0l0.6,0.2c5.3,1.8,9.2,5,10.4,8.7L56.2,61.4z"/>
</g>
</svg>
